# 3ds Max Wavefront OBJ Exporter v0.99 - (c)2007 guruware
# File Created: 30.10.2024 19:15:37

mtllib arrow.mtl

#
# object Pyramid003
#

v  0.0000 5.0411 0.0000
v  1.3728 2.9903 0.7069
v  1.3728 2.9903 -0.7069
v  -1.3728 2.9903 -0.7069
v  -1.3728 2.9903 0.7069
v  0.9586 2.9903 -0.4936
v  0.9586 2.9903 -0.7069
v  -0.9586 2.9903 -0.7069
v  -0.9586 2.9903 -0.4936
v  -0.9586 2.9903 0.4936
v  -0.9586 2.9903 0.7069
v  0.9586 2.9903 0.7069
v  0.9586 2.9903 0.4936
v  -0.6458 3.3997 0.5658
v  0.0000 4.2449 0.0000
v  0.6458 3.3997 0.5658
v  0.6458 3.3997 -0.5658
v  -0.6458 3.3997 -0.5658
# 18 vertices

vn 0.0000 1.0000 -0.0000
vn 0.6626 -0.3491 0.6626
vn 0.6626 -0.3491 -0.6626
vn -0.6626 -0.3491 -0.6626
vn -0.6626 -0.3491 0.6626
vn -0.5022 -0.8648 -0.0000
vn -0.4161 -0.5086 -0.7538
vn 0.4161 -0.5086 -0.7538
vn 0.5022 -0.8648 0.0000
vn 0.4161 -0.5086 0.7538
vn -0.4161 -0.5086 0.7538
vn 0.5139 -0.6539 -0.5553
vn 0.0000 -1.0000 -0.0000
vn -0.5139 -0.6539 -0.5553
vn -0.5139 -0.6539 0.5553
vn 0.5139 -0.6539 0.5553
# 16 vertex normals

vt 0.5000 1.0000 0.0000
vt 0.0000 0.0000 0.0000
vt 1.0000 0.0000 0.0000
vt 1.0000 1.0000 0.0000
vt 0.8491 0.8491 0.0000
vt 1.0000 0.8491 0.0000
vt 1.0000 0.1509 0.0000
vt 0.8491 0.1509 0.0000
vt 0.1509 0.1509 0.0000
vt 0.0000 0.1509 0.0000
vt 0.0000 1.0000 0.0000
vt 0.0000 0.8491 0.0000
vt 0.1509 0.8491 0.0000
vt 0.2939 0.5878 0.0000
vt 0.7061 0.5878 0.0000
vt 0.1509 0.0000 0.0000
vt 0.2648 0.1996 0.0000
vt 0.7352 0.1996 0.0000
vt 0.8491 0.0000 0.0000
vt 0.7575 0.3882 0.0000
vt 0.6798 0.3882 0.0000
vt 0.3202 0.3882 0.0000
vt 0.2425 0.3882 0.0000
# 23 texture coords

o Pyramid003
g Pyramid003
usemtl wire_085015009
s 1
f 1/1/1 2/2/2 3/3/3 
s 4
f 1/1/1 4/2/4 5/3/5 
f 3/4/3 6/5/6 7/6/7 
s 8
f 8/7/8 9/8/9 4/3/4 
f 5/2/5 10/9/9 11/10/10 
s 4
f 2/11/2 12/12/11 13/13/6 
s 2
f 14/14/12 15/1/13 16/15/14 
s 4
f 17/14/15 15/1/13 18/15/16 
s 2
f 1/1/1 3/2/3 7/16/7 17/17/15 18/18/16 8/19/8 4/3/4 
s 16
f 1/1/1 5/2/5 11/16/10 14/17/12 16/18/14 12/19/11 2/3/2 
s 8
f 7/20/7 6/21/6 13/22/6 12/23/11 16/14/14 15/1/13 17/15/15 
s 1
f 18/14/16 15/1/13 14/15/12 11/20/10 10/21/9 9/22/9 8/23/8 
s 4
f 2/11/2 13/13/6 6/5/6 3/4/3 
s 8
f 4/3/4 9/8/9 10/9/9 5/2/5 
# 6 polygons - 8 triangles

#
# object Pyramid002
#

v  0.0000 13.2646 0.0000
v  -1.1789 10.9068 1.1789
v  1.1789 10.9068 1.1789
v  1.1789 10.9068 -1.1789
v  -1.1789 10.9068 -1.1789
v  0.0000 10.9068 0.0000
# 6 vertices

vn 0.0000 1.0000 -0.0000
vn -0.6626 -0.3491 0.6626
vn 0.6626 -0.3491 0.6626
vn 0.6626 -0.3491 -0.6626
vn -0.6626 -0.3491 -0.6626
vn 0.0000 -1.0000 -0.0000
# 6 vertex normals

vt 0.5000 1.0000 0.0000
vt 0.0000 0.0000 0.0000
vt 1.0000 0.0000 0.0000
vt 0.0000 1.0000 0.0000
vt 0.5000 0.5000 0.0000
vt 1.0000 1.0000 0.0000
# 6 texture coords

o Pyramid002
g Pyramid002
usemtl wire_086086086
s 4
f 19/24/17 20/25/18 21/26/19 
s 2
f 19/24/17 21/25/19 22/26/20 
s 16
f 19/24/17 22/25/20 23/26/21 
s 32
f 19/24/17 23/25/21 20/26/18 
s 8
f 20/27/18 24/28/22 21/29/19 
f 21/29/19 24/28/22 22/26/20 
f 22/26/20 24/28/22 23/25/21 
f 23/25/21 24/28/22 20/27/18 
# 0 polygons - 8 triangles

#
# object Pyramid001
#

v  0.0000 5.0411 0.0000
v  -0.7069 2.9903 1.3728
v  0.7069 2.9903 1.3728
v  0.7069 2.9903 -1.3728
v  -0.7069 2.9903 -1.3728
v  0.4936 2.9903 0.9586
v  0.7069 2.9903 0.9586
v  0.7069 2.9903 -0.9586
v  0.4936 2.9903 -0.9586
v  -0.4936 2.9903 -0.9586
v  -0.7069 2.9903 -0.9586
v  -0.7069 2.9903 0.9586
v  -0.4936 2.9903 0.9586
v  -0.5658 3.3997 -0.6458
v  0.0000 4.2449 0.0000
v  -0.5658 3.3997 0.6458
v  0.5658 3.3997 0.6458
v  0.5658 3.3997 -0.6458
# 18 vertices

vn 0.0000 1.0000 -0.0000
vn -0.6626 -0.3491 0.6626
vn 0.6626 -0.3491 0.6626
vn 0.6626 -0.3491 -0.6626
vn -0.6626 -0.3491 -0.6626
vn 0.0000 -0.8648 -0.5022
vn 0.7538 -0.5086 -0.4161
vn 0.7538 -0.5086 0.4161
vn -0.0000 -0.8648 0.5022
vn -0.7538 -0.5086 0.4161
vn -0.7538 -0.5086 -0.4161
vn 0.5553 -0.6539 0.5139
vn 0.0000 -1.0000 -0.0000
vn 0.5553 -0.6539 -0.5139
vn -0.5553 -0.6539 -0.5139
vn -0.5553 -0.6539 0.5139
# 16 vertex normals

vt 0.5000 1.0000 0.0000
vt 0.0000 0.0000 0.0000
vt 1.0000 0.0000 0.0000
vt 1.0000 1.0000 0.0000
vt 0.8491 0.8491 0.0000
vt 1.0000 0.8491 0.0000
vt 1.0000 0.1509 0.0000
vt 0.8491 0.1509 0.0000
vt 0.1509 0.1509 0.0000
vt 0.0000 0.1509 0.0000
vt 0.0000 1.0000 0.0000
vt 0.0000 0.8491 0.0000
vt 0.1509 0.8491 0.0000
vt 0.2939 0.5878 0.0000
vt 0.7061 0.5878 0.0000
vt 0.1509 0.0000 0.0000
vt 0.2648 0.1996 0.0000
vt 0.7352 0.1996 0.0000
vt 0.8491 0.0000 0.0000
vt 0.7575 0.3882 0.0000
vt 0.6798 0.3882 0.0000
vt 0.3202 0.3882 0.0000
vt 0.2425 0.3882 0.0000
# 23 texture coords

o Pyramid001
g Pyramid001
usemtl wire_085015009
s 1
f 25/30/23 26/31/24 27/32/25 
s 4
f 25/30/23 28/31/26 29/32/27 
f 27/33/25 30/34/28 31/35/29 
s 8
f 32/36/30 33/37/31 28/32/26 
f 29/31/27 34/38/31 35/39/32 
s 4
f 26/40/24 36/41/33 37/42/28 
s 2
f 38/43/34 39/30/35 40/44/36 
s 4
f 41/43/37 39/30/35 42/44/38 
s 2
f 25/30/23 27/31/25 31/45/29 41/46/37 42/47/38 32/48/30 28/32/26 
s 16
f 25/30/23 29/31/27 35/45/32 38/46/34 40/47/36 36/48/33 26/32/24 
s 8
f 31/49/29 30/50/28 37/51/28 36/52/33 40/43/36 39/30/35 41/44/37 
s 1
f 42/43/38 39/30/35 38/44/34 35/49/32 34/50/31 33/51/31 32/52/30 
s 4
f 26/40/24 37/42/28 30/34/28 27/33/25 
s 8
f 28/32/26 33/37/31 34/38/31 29/31/27 
# 6 polygons - 8 triangles

#
# object Cylinder001
#

v  0.0000 3.7403 0.0000
v  0.3730 3.7403 -0.3130
v  0.4576 3.7403 -0.1665
v  0.4869 3.7403 0.0000
v  0.0846 3.7403 -0.4795
v  0.2435 3.7403 -0.4217
v  -0.2435 3.7403 -0.4217
v  -0.0846 3.7403 -0.4795
v  -0.4576 3.7403 -0.1665
v  -0.3730 3.7403 -0.3130
v  -0.4576 3.7403 0.1665
v  -0.4869 3.7403 -0.0000
v  -0.2435 3.7403 0.4217
v  -0.3730 3.7403 0.3130
v  0.0846 3.7403 0.4795
v  -0.0846 3.7403 0.4795
v  0.3730 3.7403 0.3130
v  0.2435 3.7403 0.4217
v  0.4576 3.7403 0.1665
v  0.4576 5.3190 -0.1665
v  0.4869 5.3190 0.0000
v  0.3730 5.3190 -0.3130
v  0.2435 5.3190 -0.4217
v  0.0846 5.3190 -0.4795
v  -0.0846 5.3190 -0.4795
v  -0.2435 5.3190 -0.4217
v  -0.3730 5.3190 -0.3130
v  -0.4576 5.3190 -0.1665
v  -0.4869 5.3190 -0.0000
v  -0.4576 5.3190 0.1665
v  -0.3730 5.3190 0.3130
v  -0.2435 5.3190 0.4217
v  -0.0846 5.3190 0.4795
v  0.0846 5.3190 0.4795
v  0.2435 5.3190 0.4217
v  0.3730 5.3190 0.3130
v  0.4576 5.3190 0.1665
v  0.4576 6.8977 -0.1665
v  0.4869 6.8977 0.0000
v  0.3730 6.8977 -0.3130
v  0.2435 6.8977 -0.4217
v  0.0846 6.8977 -0.4795
v  -0.0846 6.8977 -0.4795
v  -0.2435 6.8977 -0.4217
v  -0.3730 6.8977 -0.3130
v  -0.4576 6.8977 -0.1665
v  -0.4869 6.8977 -0.0000
v  -0.4576 6.8977 0.1665
v  -0.3730 6.8977 0.3130
v  -0.2435 6.8977 0.4217
v  -0.0846 6.8977 0.4795
v  0.0846 6.8977 0.4795
v  0.2435 6.8977 0.4217
v  0.3730 6.8977 0.3130
v  0.4576 6.8977 0.1665
v  0.4576 8.4764 -0.1665
v  0.4869 8.4764 0.0000
v  0.3730 8.4764 -0.3130
v  0.2435 8.4764 -0.4217
v  0.0846 8.4764 -0.4795
v  -0.0846 8.4764 -0.4795
v  -0.2435 8.4764 -0.4217
v  -0.3730 8.4764 -0.3130
v  -0.4576 8.4764 -0.1665
v  -0.4869 8.4764 -0.0000
v  -0.4576 8.4764 0.1665
v  -0.3730 8.4764 0.3130
v  -0.2435 8.4764 0.4217
v  -0.0846 8.4764 0.4795
v  0.0846 8.4764 0.4795
v  0.2435 8.4764 0.4217
v  0.3730 8.4764 0.3130
v  0.4576 8.4764 0.1665
v  0.4576 10.0551 -0.1665
v  0.4869 10.0551 0.0000
v  0.3730 10.0551 -0.3130
v  0.2435 10.0551 -0.4217
v  0.0846 10.0551 -0.4795
v  -0.0846 10.0551 -0.4795
v  -0.2435 10.0551 -0.4217
v  -0.3730 10.0551 -0.3130
v  -0.4576 10.0551 -0.1665
v  -0.4869 10.0551 -0.0000
v  -0.4576 10.0551 0.1665
v  -0.3730 10.0551 0.3130
v  -0.2435 10.0551 0.4217
v  -0.0846 10.0551 0.4795
v  0.0846 10.0551 0.4795
v  0.2435 10.0551 0.4217
v  0.3730 10.0551 0.3130
v  0.4576 10.0551 0.1665
v  0.4576 11.6338 -0.1665
v  0.4869 11.6338 0.0000
v  0.3730 11.6338 -0.3130
v  0.2435 11.6338 -0.4217
v  0.0846 11.6338 -0.4795
v  -0.0846 11.6338 -0.4795
v  -0.2435 11.6338 -0.4217
v  -0.3730 11.6338 -0.3130
v  -0.4576 11.6338 -0.1665
v  -0.4869 11.6338 -0.0000
v  -0.4576 11.6338 0.1665
v  -0.3730 11.6338 0.3130
v  -0.2435 11.6338 0.4217
v  -0.0846 11.6338 0.4795
v  0.0846 11.6338 0.4795
v  0.2435 11.6338 0.4217
v  0.3730 11.6338 0.3130
v  0.4576 11.6338 0.1665
v  0.0000 11.6338 0.0000
# 110 vertices

vn 0.0000 -1.0000 -0.0000
vn 0.5686 -0.6701 -0.4771
vn 0.6976 -0.6700 -0.2539
vn 0.7423 -0.6701 -0.0000
vn 0.1289 -0.6701 -0.7310
vn 0.3711 -0.6701 -0.6428
vn -0.3712 -0.6701 -0.6428
vn -0.1289 -0.6701 -0.7310
vn -0.6976 -0.6700 -0.2539
vn -0.5687 -0.6700 -0.4772
vn -0.6975 -0.6701 0.2539
vn -0.7423 -0.6700 -0.0000
vn -0.3711 -0.6701 0.6429
vn -0.5686 -0.6701 0.4771
vn 0.1289 -0.6700 0.7311
vn -0.1289 -0.6700 0.7311
vn 0.5686 -0.6701 0.4772
vn 0.3712 -0.6700 0.6429
vn 0.6975 -0.6701 0.2539
vn 0.9397 0.0000 -0.3420
vn 1.0000 0.0000 -0.0000
vn 0.7661 0.0000 -0.6428
vn 0.5000 0.0000 -0.8660
vn 0.1736 0.0000 -0.9848
vn -0.1736 0.0000 -0.9848
vn -0.5000 0.0000 -0.8660
vn -0.7660 0.0000 -0.6428
vn -0.9397 0.0000 -0.3420
vn -1.0000 0.0000 -0.0000
vn -0.9397 0.0000 0.3420
vn -0.7660 0.0000 0.6428
vn -0.5000 0.0000 0.8660
vn -0.1736 0.0000 0.9848
vn 0.1736 0.0000 0.9848
vn 0.5000 0.0000 0.8660
vn 0.7660 0.0000 0.6428
vn 0.9397 0.0000 0.3420
vn 0.6976 0.6700 -0.2539
vn 0.7423 0.6701 -0.0000
vn 0.5686 0.6701 -0.4771
vn 0.3711 0.6701 -0.6428
vn 0.1289 0.6701 -0.7310
vn -0.1289 0.6701 -0.7310
vn -0.3712 0.6701 -0.6428
vn -0.5687 0.6700 -0.4772
vn -0.6976 0.6700 -0.2539
vn -0.7423 0.6700 -0.0000
vn -0.6975 0.6701 0.2539
vn -0.5686 0.6701 0.4771
vn -0.3711 0.6701 0.6429
vn -0.1289 0.6700 0.7311
vn 0.1289 0.6700 0.7311
vn 0.3712 0.6700 0.6429
vn 0.5686 0.6701 0.4772
vn 0.6975 0.6701 0.2539
vn 0.0000 1.0000 -0.0000
# 56 vertex normals

vt 0.5000 0.0000 0.0000
vt 0.8611 0.0000 1.0000
vt 0.8056 0.0000 1.0000
vt 0.7500 0.0000 1.0000
vt 0.9722 0.0000 1.0000
vt 0.9167 0.0000 1.0000
vt 0.0833 0.0000 1.0000
vt 0.0278 0.0000 1.0000
vt -0.0278 0.0000 1.0000
vt 0.1944 0.0000 1.0000
vt 0.1389 0.0000 1.0000
vt 0.3056 0.0000 1.0000
vt 0.2500 0.0000 1.0000
vt 0.4167 0.0000 1.0000
vt 0.3611 0.0000 1.0000
vt 0.5278 0.0000 1.0000
vt 0.4722 0.0000 1.0000
vt 0.6389 0.0000 1.0000
vt 0.5833 0.0000 1.0000
vt 0.6944 0.0000 1.0000
vt 0.8056 0.2000 1.0000
vt 0.7500 0.2000 1.0000
vt 0.8611 0.2000 1.0000
vt 0.9167 0.2000 1.0000
vt 0.9722 0.2000 1.0000
vt 0.0278 0.2000 1.0000
vt -0.0278 0.2000 1.0000
vt 0.0833 0.2000 1.0000
vt 0.1389 0.2000 1.0000
vt 0.1944 0.2000 1.0000
vt 0.2500 0.2000 1.0000
vt 0.3056 0.2000 1.0000
vt 0.3611 0.2000 1.0000
vt 0.4167 0.2000 1.0000
vt 0.4722 0.2000 1.0000
vt 0.5278 0.2000 1.0000
vt 0.5833 0.2000 1.0000
vt 0.6389 0.2000 1.0000
vt 0.6944 0.2000 1.0000
vt 0.8056 0.4000 1.0000
vt 0.7500 0.4000 1.0000
vt 0.8611 0.4000 1.0000
vt 0.9167 0.4000 1.0000
vt 0.9722 0.4000 1.0000
vt 0.0278 0.4000 1.0000
vt -0.0278 0.4000 1.0000
vt 0.0833 0.4000 1.0000
vt 0.1389 0.4000 1.0000
vt 0.1944 0.4000 1.0000
vt 0.2500 0.4000 1.0000
vt 0.3056 0.4000 1.0000
vt 0.3611 0.4000 1.0000
vt 0.4167 0.4000 1.0000
vt 0.4722 0.4000 1.0000
vt 0.5278 0.4000 1.0000
vt 0.5833 0.4000 1.0000
vt 0.6389 0.4000 1.0000
vt 0.6944 0.4000 1.0000
vt 0.8056 0.6000 1.0000
vt 0.7500 0.6000 1.0000
vt 0.8611 0.6000 1.0000
vt 0.9167 0.6000 1.0000
vt 0.9722 0.6000 1.0000
vt 0.0278 0.6000 1.0000
vt -0.0278 0.6000 1.0000
vt 0.0833 0.6000 1.0000
vt 0.1389 0.6000 1.0000
vt 0.1944 0.6000 1.0000
vt 0.2500 0.6000 1.0000
vt 0.3056 0.6000 1.0000
vt 0.3611 0.6000 1.0000
vt 0.4167 0.6000 1.0000
vt 0.4722 0.6000 1.0000
vt 0.5278 0.6000 1.0000
vt 0.5833 0.6000 1.0000
vt 0.6389 0.6000 1.0000
vt 0.6944 0.6000 1.0000
vt 0.8056 0.8000 1.0000
vt 0.7500 0.8000 1.0000
vt 0.8611 0.8000 1.0000
vt 0.9167 0.8000 1.0000
vt 0.9722 0.8000 1.0000
vt 0.0278 0.8000 1.0000
vt -0.0278 0.8000 1.0000
vt 0.0833 0.8000 1.0000
vt 0.1389 0.8000 1.0000
vt 0.1944 0.8000 1.0000
vt 0.2500 0.8000 1.0000
vt 0.3056 0.8000 1.0000
vt 0.3611 0.8000 1.0000
vt 0.4167 0.8000 1.0000
vt 0.4722 0.8000 1.0000
vt 0.5278 0.8000 1.0000
vt 0.5833 0.8000 1.0000
vt 0.6389 0.8000 1.0000
vt 0.6944 0.8000 1.0000
vt 0.8056 1.0000 1.0000
vt 0.7500 1.0000 1.0000
vt 0.8611 1.0000 1.0000
vt 0.9167 1.0000 1.0000
vt 0.9722 1.0000 1.0000
vt 0.0278 1.0000 1.0000
vt -0.0278 1.0000 1.0000
vt 0.0833 1.0000 1.0000
vt 0.1389 1.0000 1.0000
vt 0.1944 1.0000 1.0000
vt 0.2500 1.0000 1.0000
vt 0.3056 1.0000 1.0000
vt 0.3611 1.0000 1.0000
vt 0.4167 1.0000 1.0000
vt 0.4722 1.0000 1.0000
vt 0.5278 1.0000 1.0000
vt 0.5833 1.0000 1.0000
vt 0.6389 1.0000 1.0000
vt 0.6944 1.0000 1.0000
vt 0.5000 1.0000 0.0000
vt 0.9708 1.0000 0.8794
# 117 texture coords

o Cylinder001
g Cylinder001
usemtl wire_103064016
s 1
f 43/53/39 44/54/40 45/55/41 46/56/42 
f 43/53/39 47/57/43 48/58/44 44/54/40 
f 43/53/39 49/59/45 50/60/46 47/61/43 
f 43/53/39 51/62/47 52/63/48 49/59/45 
f 43/53/39 53/64/49 54/65/50 51/62/47 
f 43/53/39 55/66/51 56/67/52 53/64/49 
f 43/53/39 57/68/53 58/69/54 55/66/51 
f 43/53/39 59/70/55 60/71/56 57/68/53 
f 43/53/39 46/56/42 61/72/57 59/70/55 
s 8
f 46/56/42 45/55/41 62/73/58 63/74/59 
f 45/55/41 44/54/40 64/75/60 62/73/58 
f 44/54/40 48/58/44 65/76/61 64/75/60 
f 48/58/44 47/57/43 66/77/62 65/76/61 
f 47/61/43 50/60/46 67/78/63 66/79/62 
f 50/60/46 49/59/45 68/80/64 67/78/63 
f 49/59/45 52/63/48 69/81/65 68/80/64 
f 52/63/48 51/62/47 70/82/66 69/81/65 
f 51/62/47 54/65/50 71/83/67 70/82/66 
f 54/65/50 53/64/49 72/84/68 71/83/67 
f 53/64/49 56/67/52 73/85/69 72/84/68 
f 56/67/52 55/66/51 74/86/70 73/85/69 
f 55/66/51 58/69/54 75/87/71 74/86/70 
f 58/69/54 57/68/53 76/88/72 75/87/71 
f 57/68/53 60/71/56 77/89/73 76/88/72 
f 60/71/56 59/70/55 78/90/74 77/89/73 
f 59/70/55 61/72/57 79/91/75 78/90/74 
f 61/72/57 46/56/42 63/74/59 79/91/75 
f 63/74/59 62/73/58 80/92/58 81/93/59 
f 62/73/58 64/75/60 82/94/60 80/92/58 
f 64/75/60 65/76/61 83/95/61 82/94/60 
f 65/76/61 66/77/62 84/96/62 83/95/61 
f 66/79/62 67/78/63 85/97/63 84/98/62 
f 67/78/63 68/80/64 86/99/64 85/97/63 
f 68/80/64 69/81/65 87/100/65 86/99/64 
f 69/81/65 70/82/66 88/101/66 87/100/65 
f 70/82/66 71/83/67 89/102/67 88/101/66 
f 71/83/67 72/84/68 90/103/68 89/102/67 
f 72/84/68 73/85/69 91/104/69 90/103/68 
f 73/85/69 74/86/70 92/105/70 91/104/69 
f 74/86/70 75/87/71 93/106/71 92/105/70 
f 75/87/71 76/88/72 94/107/72 93/106/71 
f 76/88/72 77/89/73 95/108/73 94/107/72 
f 77/89/73 78/90/74 96/109/74 95/108/73 
f 78/90/74 79/91/75 97/110/75 96/109/74 
f 79/91/75 63/74/59 81/93/59 97/110/75 
f 81/93/59 80/92/58 98/111/58 99/112/59 
f 80/92/58 82/94/60 100/113/60 98/111/58 
f 82/94/60 83/95/61 101/114/61 100/113/60 
f 83/95/61 84/96/62 102/115/62 101/114/61 
f 84/98/62 85/97/63 103/116/63 102/117/62 
f 85/97/63 86/99/64 104/118/64 103/116/63 
f 86/99/64 87/100/65 105/119/65 104/118/64 
f 87/100/65 88/101/66 106/120/66 105/119/65 
f 88/101/66 89/102/67 107/121/67 106/120/66 
f 89/102/67 90/103/68 108/122/68 107/121/67 
f 90/103/68 91/104/69 109/123/69 108/122/68 
f 91/104/69 92/105/70 110/124/70 109/123/69 
f 92/105/70 93/106/71 111/125/71 110/124/70 
f 93/106/71 94/107/72 112/126/72 111/125/71 
f 94/107/72 95/108/73 113/127/73 112/126/72 
f 95/108/73 96/109/74 114/128/74 113/127/73 
f 96/109/74 97/110/75 115/129/75 114/128/74 
f 97/110/75 81/93/59 99/112/59 115/129/75 
f 99/112/59 98/111/58 116/130/58 117/131/59 
f 98/111/58 100/113/60 118/132/60 116/130/58 
f 100/113/60 101/114/61 119/133/61 118/132/60 
f 101/114/61 102/115/62 120/134/62 119/133/61 
f 102/117/62 103/116/63 121/135/63 120/136/62 
f 103/116/63 104/118/64 122/137/64 121/135/63 
f 104/118/64 105/119/65 123/138/65 122/137/64 
f 105/119/65 106/120/66 124/139/66 123/138/65 
f 106/120/66 107/121/67 125/140/67 124/139/66 
f 107/121/67 108/122/68 126/141/68 125/140/67 
f 108/122/68 109/123/69 127/142/69 126/141/68 
f 109/123/69 110/124/70 128/143/70 127/142/69 
f 110/124/70 111/125/71 129/144/71 128/143/70 
f 111/125/71 112/126/72 130/145/72 129/144/71 
f 112/126/72 113/127/73 131/146/73 130/145/72 
f 113/127/73 114/128/74 132/147/74 131/146/73 
f 114/128/74 115/129/75 133/148/75 132/147/74 
f 115/129/75 99/112/59 117/131/59 133/148/75 
f 117/131/59 116/130/58 134/149/76 135/150/77 
f 116/130/58 118/132/60 136/151/78 134/149/76 
f 118/132/60 119/133/61 137/152/79 136/151/78 
f 119/133/61 120/134/62 138/153/80 137/152/79 
f 120/136/62 121/135/63 139/154/81 138/155/80 
f 121/135/63 122/137/64 140/156/82 139/154/81 
f 122/137/64 123/138/65 141/157/83 140/156/82 
f 123/138/65 124/139/66 142/158/84 141/157/83 
f 124/139/66 125/140/67 143/159/85 142/158/84 
f 125/140/67 126/141/68 144/160/86 143/159/85 
f 126/141/68 127/142/69 145/161/87 144/160/86 
f 127/142/69 128/143/70 146/162/88 145/161/87 
f 128/143/70 129/144/71 147/163/89 146/162/88 
f 129/144/71 130/145/72 148/164/90 147/163/89 
f 130/145/72 131/146/73 149/165/91 148/164/90 
f 131/146/73 132/147/74 150/166/92 149/165/91 
f 132/147/74 133/148/75 151/167/93 150/166/92 
f 133/148/75 117/131/59 135/150/77 151/167/93 
s 1
f 152/168/94 151/167/93 135/150/77 134/149/76 
f 152/168/94 134/149/76 136/151/78 137/152/79 
f 152/168/94 137/152/79 138/153/80 139/169/81 
f 152/168/94 139/154/81 140/156/82 141/157/83 
f 152/168/94 141/157/83 142/158/84 143/159/85 
f 152/168/94 143/159/85 144/160/86 145/161/87 
f 152/168/94 145/161/87 146/162/88 147/163/89 
f 152/168/94 147/163/89 148/164/90 149/165/91 
f 152/168/94 149/165/91 150/166/92 151/167/93 
# 108 polygons

