# 3ds Max Wavefront OBJ Exporter v0.99 - (c)2007 guruware
# File Created: 09.10.2024 19:14:18

mtllib tower1.mtl

#
# object Box001
#

v  -9.8407 1.0394 -0.3576
v  -9.8407 1.0394 -10.0798
v  -0.1242 1.0394 -10.0798
v  -0.1242 1.0394 -0.3576
v  -9.8407 9.4668 -0.3576
v  -0.1242 9.4668 -0.3576
v  -0.1242 9.4668 -10.0798
v  -9.8407 9.4668 -10.0798
# 8 vertices

vn -0.5774 -0.5774 0.5774
vn -0.5774 -0.5774 -0.5774
vn 0.5774 -0.5774 -0.5774
vn 0.5774 -0.5774 0.5774
vn -0.5774 0.5774 0.5774
vn 0.5774 0.5774 0.5774
vn 0.5774 0.5774 -0.5774
vn -0.5774 0.5774 -0.5774
# 8 vertex normals

vt 1.0000 0.0000 0.0000
vt 1.0000 1.0000 0.0000
vt 0.0000 1.0000 0.0000
vt 0.0000 0.0000 0.0000
# 4 texture coords

o Box001
g Box001
usemtl Material__20
s 2
f 1/1/1 2/2/2 3/3/3 4/4/4 
s 4
f 5/4/5 6/1/6 7/2/7 8/3/8 
s 8
f 1/4/1 4/1/4 6/2/6 5/3/5 
s 16
f 4/4/4 3/1/3 7/2/7 6/3/6 
s 32
f 3/4/3 2/1/2 8/2/8 7/3/7 
s 64
f 2/4/2 1/1/1 5/2/5 8/3/8 
# 6 polygons

#
# object Box002
#

v  -10.5468 24.1132 0.5034
v  -10.5468 24.1132 -11.0291
v  0.7078 24.1132 -11.0291
v  0.7078 24.1132 0.5034
v  -10.5468 26.0491 0.5034
v  0.7078 26.0491 0.5034
v  0.7078 26.0491 -11.0291
v  -10.5468 26.0491 -11.0291
# 8 vertices

vn -0.5774 -0.5774 0.5774
vn -0.5774 -0.5774 -0.5774
vn 0.5774 -0.5774 -0.5774
vn 0.5774 -0.5774 0.5774
vn -0.5774 0.5774 0.5774
vn 0.5774 0.5774 0.5774
vn 0.5774 0.5774 -0.5774
vn -0.5774 0.5774 -0.5774
# 8 vertex normals

vt 1.0000 0.0000 0.0000
vt 1.0000 1.0000 0.0000
vt 0.0000 1.0000 0.0000
vt 0.0000 0.0000 0.0000
# 4 texture coords

o Box002
g Box002
usemtl Material__20
s 2
f 9/5/9 10/6/10 11/7/11 12/8/12 
s 4
f 13/8/13 14/5/14 15/6/15 16/7/16 
s 8
f 9/8/9 12/5/12 14/6/14 13/7/13 
s 16
f 12/8/12 11/5/11 15/6/15 14/7/14 
s 32
f 11/8/11 10/5/10 16/6/16 15/7/15 
s 64
f 10/8/10 9/5/9 13/6/13 16/7/16 
# 6 polygons

#
# object Box003
#

v  -9.2351 9.0711 -0.9635
v  -9.2351 9.0711 -9.4739
v  -0.7298 9.0711 -9.4739
v  -0.7298 9.0711 -0.9635
v  -9.2351 17.4369 -0.9635
v  -0.7298 17.4369 -0.9635
v  -0.7298 17.4369 -9.4739
v  -9.2351 17.4369 -9.4739
# 8 vertices

vn -0.5774 -0.5774 0.5774
vn -0.5774 -0.5774 -0.5774
vn 0.5774 -0.5774 -0.5774
vn 0.5774 -0.5774 0.5774
vn -0.5774 0.5774 0.5774
vn 0.5774 0.5774 0.5774
vn 0.5774 0.5774 -0.5774
vn -0.5774 0.5774 -0.5774
# 8 vertex normals

vt 1.0000 0.0000 0.0000
vt 1.0000 1.0000 0.0000
vt 0.0000 1.0000 0.0000
vt 0.0000 0.0000 0.0000
# 4 texture coords

o Box003
g Box003
usemtl Material__20
s 2
f 17/9/17 18/10/18 19/11/19 20/12/20 
s 4
f 21/12/21 22/9/22 23/10/23 24/11/24 
s 8
f 17/12/17 20/9/20 22/10/22 21/11/21 
s 16
f 20/12/20 19/9/19 23/10/23 22/11/22 
s 32
f 19/12/19 18/9/18 24/10/24 23/11/23 
s 64
f 18/12/18 17/9/17 21/10/21 24/11/24 
# 6 polygons

#
# object Box004
#

v  -10.1303 0.1373 0.4078
v  -10.1303 0.1373 -10.8452
v  0.1654 0.1373 -10.8452
v  0.1654 0.1373 0.4078
v  -10.1303 2.4737 0.4078
v  0.1654 2.4737 0.4078
v  0.1654 2.4737 -10.8452
v  -10.1303 2.4737 -10.8452
# 8 vertices

vn -0.5774 -0.5774 0.5774
vn -0.5774 -0.5774 -0.5774
vn 0.5774 -0.5774 -0.5774
vn 0.5774 -0.5774 0.5774
vn -0.5774 0.5774 0.5774
vn 0.5774 0.5774 0.5774
vn 0.5774 0.5774 -0.5774
vn -0.5774 0.5774 -0.5774
# 8 vertex normals

vt 1.0000 0.0000 0.0000
vt 1.0000 1.0000 0.0000
vt 0.0000 1.0000 0.0000
vt 0.0000 0.0000 0.0000
# 4 texture coords

o Box004
g Box004
usemtl Material__20
s 2
f 25/13/25 26/14/26 27/15/27 28/16/28 
s 4
f 29/16/29 30/13/30 31/14/31 32/15/32 
s 8
f 25/16/25 28/13/28 30/14/30 29/15/29 
s 16
f 28/16/28 27/13/27 31/14/31 30/15/30 
s 32
f 27/16/27 26/13/26 32/14/32 31/15/31 
s 64
f 26/16/26 25/13/25 29/14/29 32/15/32 
# 6 polygons

#
# object Box005
#

v  -9.8407 16.1026 -0.3576
v  -9.8407 16.1026 -10.0798
v  -0.1242 16.1026 -10.0798
v  -0.1242 16.1026 -0.3576
v  -9.8407 24.5301 -0.3576
v  -0.1242 24.5301 -0.3576
v  -0.1242 24.5301 -10.0798
v  -9.8407 24.5301 -10.0798
# 8 vertices

vn -0.5774 -0.5774 0.5774
vn -0.5774 -0.5774 -0.5774
vn 0.5774 -0.5774 -0.5774
vn 0.5774 -0.5774 0.5774
vn -0.5774 0.5774 0.5774
vn 0.5774 0.5774 0.5774
vn 0.5774 0.5774 -0.5774
vn -0.5774 0.5774 -0.5774
# 8 vertex normals

vt 1.0000 0.0000 0.0000
vt 1.0000 1.0000 0.0000
vt 0.0000 1.0000 0.0000
vt 0.0000 0.0000 0.0000
# 4 texture coords

o Box005
g Box005
usemtl Material__20
s 2
f 33/17/33 34/18/34 35/19/35 36/20/36 
s 4
f 37/20/37 38/17/38 39/18/39 40/19/40 
s 8
f 33/20/33 36/17/36 38/18/38 37/19/37 
s 16
f 36/20/36 35/17/35 39/18/39 38/19/38 
s 32
f 35/20/35 34/17/34 40/18/40 39/19/39 
s 64
f 34/20/34 33/17/33 37/18/37 40/19/40 
# 6 polygons

#
# object Box006
#

v  -10.5303 26.0424 -9.4843
v  -10.5303 26.0424 -11.0063
v  -9.2106 26.0424 -11.0063
v  -9.2106 26.0424 -9.4843
v  -10.5303 27.3627 -9.4843
v  -9.2106 27.3627 -9.4843
v  -9.2106 27.3627 -11.0063
v  -10.5303 27.3627 -11.0063
# 8 vertices

vn -0.5774 -0.5774 0.5774
vn -0.5774 -0.5774 -0.5774
vn 0.5774 -0.5774 -0.5774
vn 0.5774 -0.5774 0.5774
vn -0.5774 0.5774 0.5774
vn 0.5774 0.5774 0.5774
vn 0.5774 0.5774 -0.5774
vn -0.5774 0.5774 -0.5774
# 8 vertex normals

vt 1.0000 0.0000 0.0000
vt 1.0000 1.0000 0.0000
vt 0.0000 1.0000 0.0000
vt 0.0000 0.0000 0.0000
# 4 texture coords

o Box006
g Box006
usemtl Material__20
s 2
f 41/21/41 42/22/42 43/23/43 44/24/44 
s 4
f 45/24/45 46/21/46 47/22/47 48/23/48 
s 8
f 41/24/41 44/21/44 46/22/46 45/23/45 
s 16
f 44/24/44 43/21/43 47/22/47 46/23/46 
s 32
f 43/24/43 42/21/42 48/22/48 47/23/47 
s 64
f 42/24/42 41/21/41 45/22/45 48/23/48 
# 6 polygons

#
# object Box007
#

v  -0.6411 26.0424 -9.4843
v  -0.6411 26.0424 -11.0063
v  0.6787 26.0424 -11.0063
v  0.6787 26.0424 -9.4843
v  -0.6411 27.3627 -9.4843
v  0.6787 27.3627 -9.4843
v  0.6787 27.3627 -11.0063
v  -0.6411 27.3627 -11.0063
# 8 vertices

vn -0.5774 -0.5774 0.5774
vn -0.5774 -0.5774 -0.5774
vn 0.5774 -0.5774 -0.5774
vn 0.5774 -0.5774 0.5774
vn -0.5774 0.5774 0.5774
vn 0.5774 0.5774 0.5774
vn 0.5774 0.5774 -0.5774
vn -0.5774 0.5774 -0.5774
# 8 vertex normals

vt 1.0000 0.0000 0.0000
vt 1.0000 1.0000 0.0000
vt 0.0000 1.0000 0.0000
vt 0.0000 0.0000 0.0000
# 4 texture coords

o Box007
g Box007
usemtl Material__20
s 2
f 49/25/49 50/26/50 51/27/51 52/28/52 
s 4
f 53/28/53 54/25/54 55/26/55 56/27/56 
s 8
f 49/28/49 52/25/52 54/26/54 53/27/53 
s 16
f 52/28/52 51/25/51 55/26/55 54/27/54 
s 32
f 51/28/51 50/25/50 56/26/56 55/27/55 
s 64
f 50/28/50 49/25/49 53/26/53 56/27/56 
# 6 polygons

#
# object Box008
#

v  -3.0673 26.0424 -9.4843
v  -3.0673 26.0424 -11.0063
v  -1.7476 26.0424 -11.0063
v  -1.7476 26.0424 -9.4843
v  -3.0673 27.3627 -9.4843
v  -1.7476 27.3627 -9.4843
v  -1.7476 27.3627 -11.0063
v  -3.0673 27.3627 -11.0063
# 8 vertices

vn -0.5774 -0.5774 0.5774
vn -0.5774 -0.5774 -0.5774
vn 0.5774 -0.5774 -0.5774
vn 0.5774 -0.5774 0.5774
vn -0.5774 0.5774 0.5774
vn 0.5774 0.5774 0.5774
vn 0.5774 0.5774 -0.5774
vn -0.5774 0.5774 -0.5774
# 8 vertex normals

vt 1.0000 0.0000 0.0000
vt 1.0000 1.0000 0.0000
vt 0.0000 1.0000 0.0000
vt 0.0000 0.0000 0.0000
# 4 texture coords

o Box008
g Box008
usemtl Material__20
s 2
f 57/29/57 58/30/58 59/31/59 60/32/60 
s 4
f 61/32/61 62/29/62 63/30/63 64/31/64 
s 8
f 57/32/57 60/29/60 62/30/62 61/31/61 
s 16
f 60/32/60 59/29/59 63/30/63 62/31/62 
s 32
f 59/32/59 58/29/58 64/30/64 63/31/63 
s 64
f 58/32/58 57/29/57 61/30/61 64/31/64 
# 6 polygons

#
# object Box009
#

v  -5.5770 26.0424 -9.4843
v  -5.5770 26.0424 -11.0063
v  -4.2573 26.0424 -11.0063
v  -4.2573 26.0424 -9.4843
v  -5.5770 27.3627 -9.4843
v  -4.2573 27.3627 -9.4843
v  -4.2573 27.3627 -11.0063
v  -5.5770 27.3627 -11.0063
# 8 vertices

vn -0.5774 -0.5774 0.5774
vn -0.5774 -0.5774 -0.5774
vn 0.5774 -0.5774 -0.5774
vn 0.5774 -0.5774 0.5774
vn -0.5774 0.5774 0.5774
vn 0.5774 0.5774 0.5774
vn 0.5774 0.5774 -0.5774
vn -0.5774 0.5774 -0.5774
# 8 vertex normals

vt 1.0000 0.0000 0.0000
vt 1.0000 1.0000 0.0000
vt 0.0000 1.0000 0.0000
vt 0.0000 0.0000 0.0000
# 4 texture coords

o Box009
g Box009
usemtl Material__20
s 2
f 65/33/65 66/34/66 67/35/67 68/36/68 
s 4
f 69/36/69 70/33/70 71/34/71 72/35/72 
s 8
f 65/36/65 68/33/68 70/34/70 69/35/69 
s 16
f 68/36/68 67/33/67 71/34/71 70/35/70 
s 32
f 67/36/67 66/33/66 72/34/72 71/35/71 
s 64
f 66/36/66 65/33/65 69/34/69 72/35/72 
# 6 polygons

#
# object Box010
#

v  -8.1261 26.0424 -9.4843
v  -8.1261 26.0424 -11.0063
v  -6.8063 26.0424 -11.0063
v  -6.8063 26.0424 -9.4843
v  -8.1261 27.3627 -9.4843
v  -6.8063 27.3627 -9.4843
v  -6.8063 27.3627 -11.0063
v  -8.1261 27.3627 -11.0063
# 8 vertices

vn -0.5774 -0.5774 0.5774
vn -0.5774 -0.5774 -0.5774
vn 0.5774 -0.5774 -0.5774
vn 0.5774 -0.5774 0.5774
vn -0.5774 0.5774 0.5774
vn 0.5774 0.5774 0.5774
vn 0.5774 0.5774 -0.5774
vn -0.5774 0.5774 -0.5774
# 8 vertex normals

vt 1.0000 0.0000 0.0000
vt 1.0000 1.0000 0.0000
vt 0.0000 1.0000 0.0000
vt 0.0000 0.0000 0.0000
# 4 texture coords

o Box010
g Box010
usemtl Material__20
s 2
f 73/37/73 74/38/74 75/39/75 76/40/76 
s 4
f 77/40/77 78/37/78 79/38/79 80/39/80 
s 8
f 73/40/73 76/37/76 78/38/78 77/39/77 
s 16
f 76/40/76 75/37/75 79/38/79 78/39/78 
s 32
f 75/40/75 74/37/74 80/38/80 79/39/79 
s 64
f 74/40/74 73/37/73 77/38/77 80/39/80 
# 6 polygons

#
# object Box011
#

v  -10.5303 26.0424 0.4548
v  -10.5303 26.0424 -1.0672
v  -9.2106 26.0424 -1.0672
v  -9.2106 26.0424 0.4548
v  -10.5303 27.3627 0.4548
v  -9.2106 27.3627 0.4548
v  -9.2106 27.3627 -1.0672
v  -10.5303 27.3627 -1.0672
# 8 vertices

vn -0.5774 -0.5774 0.5774
vn -0.5774 -0.5774 -0.5774
vn 0.5774 -0.5774 -0.5774
vn 0.5774 -0.5774 0.5774
vn -0.5774 0.5774 0.5774
vn 0.5774 0.5774 0.5774
vn 0.5774 0.5774 -0.5774
vn -0.5774 0.5774 -0.5774
# 8 vertex normals

vt 1.0000 0.0000 0.0000
vt 1.0000 1.0000 0.0000
vt 0.0000 1.0000 0.0000
vt 0.0000 0.0000 0.0000
# 4 texture coords

o Box011
g Box011
usemtl Material__20
s 2
f 81/41/81 82/42/82 83/43/83 84/44/84 
s 4
f 85/44/85 86/41/86 87/42/87 88/43/88 
s 8
f 81/44/81 84/41/84 86/42/86 85/43/85 
s 16
f 84/44/84 83/41/83 87/42/87 86/43/86 
s 32
f 83/44/83 82/41/82 88/42/88 87/43/87 
s 64
f 82/44/82 81/41/81 85/42/85 88/43/88 
# 6 polygons

#
# object Box012
#

v  -8.1261 26.0424 0.4548
v  -8.1261 26.0424 -1.0672
v  -6.8063 26.0424 -1.0672
v  -6.8063 26.0424 0.4548
v  -8.1261 27.3627 0.4548
v  -6.8063 27.3627 0.4548
v  -6.8063 27.3627 -1.0672
v  -8.1261 27.3627 -1.0672
# 8 vertices

vn -0.5774 -0.5774 0.5774
vn -0.5774 -0.5774 -0.5774
vn 0.5774 -0.5774 -0.5774
vn 0.5774 -0.5774 0.5774
vn -0.5774 0.5774 0.5774
vn 0.5774 0.5774 0.5774
vn 0.5774 0.5774 -0.5774
vn -0.5774 0.5774 -0.5774
# 8 vertex normals

vt 1.0000 0.0000 0.0000
vt 1.0000 1.0000 0.0000
vt 0.0000 1.0000 0.0000
vt 0.0000 0.0000 0.0000
# 4 texture coords

o Box012
g Box012
usemtl Material__20
s 2
f 89/45/89 90/46/90 91/47/91 92/48/92 
s 4
f 93/48/93 94/45/94 95/46/95 96/47/96 
s 8
f 89/48/89 92/45/92 94/46/94 93/47/93 
s 16
f 92/48/92 91/45/91 95/46/95 94/47/94 
s 32
f 91/48/91 90/45/90 96/46/96 95/47/95 
s 64
f 90/48/90 89/45/89 93/46/93 96/47/96 
# 6 polygons

#
# object Box013
#

v  -5.5770 26.0424 0.4548
v  -5.5770 26.0424 -1.0672
v  -4.2573 26.0424 -1.0672
v  -4.2573 26.0424 0.4548
v  -5.5770 27.3627 0.4548
v  -4.2573 27.3627 0.4548
v  -4.2573 27.3627 -1.0672
v  -5.5770 27.3627 -1.0672
# 8 vertices

vn -0.5774 -0.5774 0.5774
vn -0.5774 -0.5774 -0.5774
vn 0.5774 -0.5774 -0.5774
vn 0.5774 -0.5774 0.5774
vn -0.5774 0.5774 0.5774
vn 0.5774 0.5774 0.5774
vn 0.5774 0.5774 -0.5774
vn -0.5774 0.5774 -0.5774
# 8 vertex normals

vt 1.0000 0.0000 0.0000
vt 1.0000 1.0000 0.0000
vt 0.0000 1.0000 0.0000
vt 0.0000 0.0000 0.0000
# 4 texture coords

o Box013
g Box013
usemtl Material__20
s 2
f 97/49/97 98/50/98 99/51/99 100/52/100 
s 4
f 101/52/101 102/49/102 103/50/103 104/51/104 
s 8
f 97/52/97 100/49/100 102/50/102 101/51/101 
s 16
f 100/52/100 99/49/99 103/50/103 102/51/102 
s 32
f 99/52/99 98/49/98 104/50/104 103/51/103 
s 64
f 98/52/98 97/49/97 101/50/101 104/51/104 
# 6 polygons

#
# object Box014
#

v  -3.0673 26.0424 0.4548
v  -3.0673 26.0424 -1.0672
v  -1.7476 26.0424 -1.0672
v  -1.7476 26.0424 0.4548
v  -3.0673 27.3627 0.4548
v  -1.7476 27.3627 0.4548
v  -1.7476 27.3627 -1.0672
v  -3.0673 27.3627 -1.0672
# 8 vertices

vn -0.5774 -0.5774 0.5774
vn -0.5774 -0.5774 -0.5774
vn 0.5774 -0.5774 -0.5774
vn 0.5774 -0.5774 0.5774
vn -0.5774 0.5774 0.5774
vn 0.5774 0.5774 0.5774
vn 0.5774 0.5774 -0.5774
vn -0.5774 0.5774 -0.5774
# 8 vertex normals

vt 1.0000 0.0000 0.0000
vt 1.0000 1.0000 0.0000
vt 0.0000 1.0000 0.0000
vt 0.0000 0.0000 0.0000
# 4 texture coords

o Box014
g Box014
usemtl Material__20
s 2
f 105/53/105 106/54/106 107/55/107 108/56/108 
s 4
f 109/56/109 110/53/110 111/54/111 112/55/112 
s 8
f 105/56/105 108/53/108 110/54/110 109/55/109 
s 16
f 108/56/108 107/53/107 111/54/111 110/55/110 
s 32
f 107/56/107 106/53/106 112/54/112 111/55/111 
s 64
f 106/56/106 105/53/105 109/54/109 112/55/112 
# 6 polygons

#
# object Box015
#

v  -0.6411 26.0424 0.4548
v  -0.6411 26.0424 -1.0672
v  0.6787 26.0424 -1.0672
v  0.6787 26.0424 0.4548
v  -0.6411 27.3627 0.4548
v  0.6787 27.3627 0.4548
v  0.6787 27.3627 -1.0672
v  -0.6411 27.3627 -1.0672
# 8 vertices

vn -0.5774 -0.5774 0.5774
vn -0.5774 -0.5774 -0.5774
vn 0.5774 -0.5774 -0.5774
vn 0.5774 -0.5774 0.5774
vn -0.5774 0.5774 0.5774
vn 0.5774 0.5774 0.5774
vn 0.5774 0.5774 -0.5774
vn -0.5774 0.5774 -0.5774
# 8 vertex normals

vt 1.0000 0.0000 0.0000
vt 1.0000 1.0000 0.0000
vt 0.0000 1.0000 0.0000
vt 0.0000 0.0000 0.0000
# 4 texture coords

o Box015
g Box015
usemtl Material__20
s 2
f 113/57/113 114/58/114 115/59/115 116/60/116 
s 4
f 117/60/117 118/57/118 119/58/119 120/59/120 
s 8
f 113/60/113 116/57/116 118/58/118 117/59/117 
s 16
f 116/60/116 115/57/115 119/58/119 118/59/118 
s 32
f 115/60/115 114/57/114 120/58/120 119/59/119 
s 64
f 114/60/114 113/57/113 117/58/117 120/59/120 
# 6 polygons

#
# object Box016
#

v  -0.8531 26.0424 -3.3307
v  0.6689 26.0424 -3.3307
v  0.6689 26.0424 -2.0110
v  -0.8531 26.0424 -2.0110
v  -0.8531 27.3627 -3.3307
v  -0.8531 27.3627 -2.0110
v  0.6689 27.3627 -2.0110
v  0.6689 27.3627 -3.3307
# 8 vertices

vn -0.5774 -0.5774 -0.5774
vn 0.5774 -0.5774 -0.5774
vn 0.5774 -0.5774 0.5774
vn -0.5774 -0.5774 0.5774
vn -0.5774 0.5774 -0.5774
vn -0.5774 0.5774 0.5774
vn 0.5774 0.5774 0.5774
vn 0.5774 0.5774 -0.5774
# 8 vertex normals

vt 1.0000 0.0000 0.0000
vt 1.0000 1.0000 0.0000
vt 0.0000 1.0000 0.0000
vt 0.0000 0.0000 0.0000
# 4 texture coords

o Box016
g Box016
usemtl Material__20
s 2
f 121/61/121 122/62/122 123/63/123 124/64/124 
s 4
f 125/64/125 126/61/126 127/62/127 128/63/128 
s 8
f 121/64/121 124/61/124 126/62/126 125/63/125 
s 16
f 124/64/124 123/61/123 127/62/127 126/63/126 
s 32
f 123/64/123 122/61/122 128/62/128 127/63/127 
s 64
f 122/64/122 121/61/121 125/62/125 128/63/128 
# 6 polygons

#
# object Box017
#

v  -0.8531 26.0424 -5.8404
v  0.6689 26.0424 -5.8404
v  0.6689 26.0424 -4.5207
v  -0.8531 26.0424 -4.5207
v  -0.8531 27.3627 -5.8404
v  -0.8531 27.3627 -4.5207
v  0.6689 27.3627 -4.5207
v  0.6689 27.3627 -5.8404
# 8 vertices

vn -0.5774 -0.5774 -0.5774
vn 0.5774 -0.5774 -0.5774
vn 0.5774 -0.5774 0.5774
vn -0.5774 -0.5774 0.5774
vn -0.5774 0.5774 -0.5774
vn -0.5774 0.5774 0.5774
vn 0.5774 0.5774 0.5774
vn 0.5774 0.5774 -0.5774
# 8 vertex normals

vt 1.0000 0.0000 0.0000
vt 1.0000 1.0000 0.0000
vt 0.0000 1.0000 0.0000
vt 0.0000 0.0000 0.0000
# 4 texture coords

o Box017
g Box017
usemtl Material__20
s 2
f 129/65/129 130/66/130 131/67/131 132/68/132 
s 4
f 133/68/133 134/65/134 135/66/135 136/67/136 
s 8
f 129/68/129 132/65/132 134/66/134 133/67/133 
s 16
f 132/68/132 131/65/131 135/66/135 134/67/134 
s 32
f 131/68/131 130/65/130 136/66/136 135/67/135 
s 64
f 130/68/130 129/65/129 133/66/133 136/67/136 
# 6 polygons

#
# object Box018
#

v  -0.8531 26.0424 -8.3895
v  0.6689 26.0424 -8.3895
v  0.6689 26.0424 -7.0697
v  -0.8531 26.0424 -7.0697
v  -0.8531 27.3627 -8.3895
v  -0.8531 27.3627 -7.0697
v  0.6689 27.3627 -7.0697
v  0.6689 27.3627 -8.3895
# 8 vertices

vn -0.5774 -0.5774 -0.5774
vn 0.5774 -0.5774 -0.5774
vn 0.5774 -0.5774 0.5774
vn -0.5774 -0.5774 0.5774
vn -0.5774 0.5774 -0.5774
vn -0.5774 0.5774 0.5774
vn 0.5774 0.5774 0.5774
vn 0.5774 0.5774 -0.5774
# 8 vertex normals

vt 1.0000 0.0000 0.0000
vt 1.0000 1.0000 0.0000
vt 0.0000 1.0000 0.0000
vt 0.0000 0.0000 0.0000
# 4 texture coords

o Box018
g Box018
usemtl Material__20
s 2
f 137/69/137 138/70/138 139/71/139 140/72/140 
s 4
f 141/72/141 142/69/142 143/70/143 144/71/144 
s 8
f 137/72/137 140/69/140 142/70/142 141/71/141 
s 16
f 140/72/140 139/69/139 143/70/143 142/71/142 
s 32
f 139/72/139 138/69/138 144/70/144 143/71/143 
s 64
f 138/72/138 137/69/137 141/70/141 144/71/144 
# 6 polygons

#
# object Box019
#

v  -10.4973 26.0424 -3.3307
v  -8.9754 26.0424 -3.3307
v  -8.9754 26.0424 -2.0110
v  -10.4973 26.0424 -2.0110
v  -10.4973 27.3627 -3.3307
v  -10.4973 27.3627 -2.0110
v  -8.9754 27.3627 -2.0110
v  -8.9754 27.3627 -3.3307
# 8 vertices

vn -0.5774 -0.5774 -0.5774
vn 0.5774 -0.5774 -0.5774
vn 0.5774 -0.5774 0.5774
vn -0.5774 -0.5774 0.5774
vn -0.5774 0.5774 -0.5774
vn -0.5774 0.5774 0.5774
vn 0.5774 0.5774 0.5774
vn 0.5774 0.5774 -0.5774
# 8 vertex normals

vt 1.0000 0.0000 0.0000
vt 1.0000 1.0000 0.0000
vt 0.0000 1.0000 0.0000
vt 0.0000 0.0000 0.0000
# 4 texture coords

o Box019
g Box019
usemtl Material__20
s 2
f 145/73/145 146/74/146 147/75/147 148/76/148 
s 4
f 149/76/149 150/73/150 151/74/151 152/75/152 
s 8
f 145/76/145 148/73/148 150/74/150 149/75/149 
s 16
f 148/76/148 147/73/147 151/74/151 150/75/150 
s 32
f 147/76/147 146/73/146 152/74/152 151/75/151 
s 64
f 146/76/146 145/73/145 149/74/149 152/75/152 
# 6 polygons

#
# object Box020
#

v  -10.4973 26.0424 -5.8404
v  -8.9754 26.0424 -5.8404
v  -8.9754 26.0424 -4.5207
v  -10.4973 26.0424 -4.5207
v  -10.4973 27.3627 -5.8404
v  -10.4973 27.3627 -4.5207
v  -8.9754 27.3627 -4.5207
v  -8.9754 27.3627 -5.8404
# 8 vertices

vn -0.5774 -0.5774 -0.5774
vn 0.5774 -0.5774 -0.5774
vn 0.5774 -0.5774 0.5774
vn -0.5774 -0.5774 0.5774
vn -0.5774 0.5774 -0.5774
vn -0.5774 0.5774 0.5774
vn 0.5774 0.5774 0.5774
vn 0.5774 0.5774 -0.5774
# 8 vertex normals

vt 1.0000 0.0000 0.0000
vt 1.0000 1.0000 0.0000
vt 0.0000 1.0000 0.0000
vt 0.0000 0.0000 0.0000
# 4 texture coords

o Box020
g Box020
usemtl Material__20
s 2
f 153/77/153 154/78/154 155/79/155 156/80/156 
s 4
f 157/80/157 158/77/158 159/78/159 160/79/160 
s 8
f 153/80/153 156/77/156 158/78/158 157/79/157 
s 16
f 156/80/156 155/77/155 159/78/159 158/79/158 
s 32
f 155/80/155 154/77/154 160/78/160 159/79/159 
s 64
f 154/80/154 153/77/153 157/78/157 160/79/160 
# 6 polygons

#
# object Box021
#

v  -10.4973 26.0424 -8.3895
v  -8.9754 26.0424 -8.3895
v  -8.9754 26.0424 -7.0697
v  -10.4973 26.0424 -7.0697
v  -10.4973 27.3627 -8.3895
v  -10.4973 27.3627 -7.0697
v  -8.9754 27.3627 -7.0697
v  -8.9754 27.3627 -8.3895
# 8 vertices

vn -0.5774 -0.5774 -0.5774
vn 0.5774 -0.5774 -0.5774
vn 0.5774 -0.5774 0.5774
vn -0.5774 -0.5774 0.5774
vn -0.5774 0.5774 -0.5774
vn -0.5774 0.5774 0.5774
vn 0.5774 0.5774 0.5774
vn 0.5774 0.5774 -0.5774
# 8 vertex normals

vt 1.0000 0.0000 0.0000
vt 1.0000 1.0000 0.0000
vt 0.0000 1.0000 0.0000
vt 0.0000 0.0000 0.0000
# 4 texture coords

o Box021
g Box021
usemtl Material__20
s 2
f 161/81/161 162/82/162 163/83/163 164/84/164 
s 4
f 165/84/165 166/81/166 167/82/167 168/83/168 
s 8
f 161/84/161 164/81/164 166/82/166 165/83/165 
s 16
f 164/84/164 163/81/163 167/82/167 166/83/166 
s 32
f 163/84/163 162/81/162 168/82/168 167/83/167 
s 64
f 162/84/162 161/81/161 165/82/165 168/83/168 
# 6 polygons

